<svg width="154" height="165" viewBox="0 0 154 165" fill="none" xmlns="http://www.w3.org/2000/svg">
<path d="M15.114 143.49V159H10.802V152.774H5.544V159H1.232V143.49H5.544V149.32H10.802V143.49H15.114ZM29.3736 152.686C29.3736 153.023 29.3516 153.361 29.3076 153.698H21.1456C21.1896 154.373 21.3729 154.879 21.6956 155.216C22.0329 155.539 22.4583 155.7 22.9716 155.7C23.6903 155.7 24.2036 155.377 24.5116 154.732H29.1096C28.9189 155.583 28.5449 156.345 27.9876 157.02C27.4449 157.68 26.7556 158.201 25.9196 158.582C25.0836 158.963 24.1596 159.154 23.1476 159.154C21.9303 159.154 20.8449 158.897 19.8916 158.384C18.9529 157.871 18.2123 157.137 17.6696 156.184C17.1416 155.231 16.8776 154.109 16.8776 152.818C16.8776 151.527 17.1416 150.413 17.6696 149.474C18.1976 148.521 18.9309 147.787 19.8696 147.274C20.8229 146.761 21.9156 146.504 23.1476 146.504C24.3649 146.504 25.4429 146.753 26.3816 147.252C27.3203 147.751 28.0536 148.469 28.5816 149.408C29.1096 150.332 29.3736 151.425 29.3736 152.686ZM24.9736 151.608C24.9736 151.08 24.7976 150.669 24.4456 150.376C24.0936 150.068 23.6536 149.914 23.1256 149.914C22.5976 149.914 22.1649 150.061 21.8276 150.354C21.4903 150.633 21.2703 151.051 21.1676 151.608H24.9736ZM35.4503 142.72V159H31.1383V142.72H35.4503ZM42.2178 148.374C42.5552 147.802 43.0318 147.347 43.6478 147.01C44.2638 146.673 44.9898 146.504 45.8258 146.504C46.8085 146.504 47.6958 146.761 48.4878 147.274C49.2945 147.787 49.9252 148.521 50.3798 149.474C50.8492 150.427 51.0838 151.542 51.0838 152.818C51.0838 154.094 50.8492 155.216 50.3798 156.184C49.9252 157.137 49.2945 157.871 48.4878 158.384C47.6958 158.897 46.8085 159.154 45.8258 159.154C44.9898 159.154 44.2638 158.985 43.6478 158.648C43.0465 158.311 42.5698 157.856 42.2178 157.284V164.896H37.9058V146.658H42.2178V148.374ZM46.7058 152.818C46.7058 152.011 46.4858 151.388 46.0458 150.948C45.6205 150.493 45.0925 150.266 44.4618 150.266C43.8312 150.266 43.2958 150.493 42.8558 150.948C42.4305 151.403 42.2178 152.026 42.2178 152.818C42.2178 153.625 42.4305 154.255 42.8558 154.71C43.2958 155.165 43.8312 155.392 44.4618 155.392C45.0925 155.392 45.6205 155.165 46.0458 154.71C46.4858 154.241 46.7058 153.61 46.7058 152.818ZM68.8839 159L67.6299 157.812C66.2366 158.765 64.5719 159.242 62.6359 159.242C61.4186 159.242 60.3552 159.044 59.4459 158.648C58.5512 158.252 57.8546 157.695 57.3559 156.976C56.8719 156.257 56.6299 155.429 56.6299 154.49C56.6299 153.551 56.8719 152.701 57.3559 151.938C57.8546 151.161 58.5952 150.53 59.5779 150.046C59.2112 149.577 58.9472 149.129 58.7859 148.704C58.6246 148.279 58.5439 147.824 58.5439 147.34C58.5439 146.577 58.7419 145.881 59.1379 145.25C59.5339 144.619 60.1132 144.121 60.8759 143.754C61.6532 143.373 62.5699 143.182 63.6259 143.182C64.6966 143.182 65.6059 143.38 66.3539 143.776C67.1019 144.157 67.6592 144.671 68.0259 145.316C68.4072 145.947 68.5906 146.636 68.5759 147.384H64.5939C64.5939 147.047 64.4986 146.79 64.3079 146.614C64.1172 146.438 63.8826 146.35 63.6039 146.35C63.3106 146.35 63.0612 146.438 62.8559 146.614C62.6652 146.775 62.5699 147.003 62.5699 147.296C62.5699 147.809 62.9366 148.433 63.6699 149.166L67.2999 152.708C67.4319 152.444 67.5712 152.129 67.7179 151.762L68.1579 150.97H72.4259L71.7879 152.202C71.2599 153.463 70.6806 154.527 70.0499 155.392L73.7459 159H68.8839ZM62.9219 155.788C63.6992 155.788 64.3886 155.619 64.9899 155.282L61.9319 152.356C61.5506 152.591 61.2646 152.862 61.0739 153.17C60.8832 153.478 60.7879 153.793 60.7879 154.116C60.7879 154.585 60.9786 154.981 61.3599 155.304C61.7412 155.627 62.2619 155.788 62.9219 155.788ZM93.0808 143.49V159H88.7688V152.774H83.5108V159H79.1988V143.49H83.5108V149.32H88.7688V143.49H93.0808ZM107.34 152.686C107.34 153.023 107.318 153.361 107.274 153.698H99.1124C99.1564 154.373 99.3397 154.879 99.6624 155.216C99.9997 155.539 100.425 155.7 100.938 155.7C101.657 155.7 102.17 155.377 102.478 154.732H107.076C106.886 155.583 106.512 156.345 105.954 157.02C105.412 157.68 104.722 158.201 103.886 158.582C103.05 158.963 102.126 159.154 101.114 159.154C99.8971 159.154 98.8117 158.897 97.8584 158.384C96.9197 157.871 96.1791 157.137 95.6364 156.184C95.1084 155.231 94.8444 154.109 94.8444 152.818C94.8444 151.527 95.1084 150.413 95.6364 149.474C96.1644 148.521 96.8977 147.787 97.8364 147.274C98.7897 146.761 99.8824 146.504 101.114 146.504C102.332 146.504 103.41 146.753 104.348 147.252C105.287 147.751 106.02 148.469 106.548 149.408C107.076 150.332 107.34 151.425 107.34 152.686ZM102.94 151.608C102.94 151.08 102.764 150.669 102.412 150.376C102.06 150.068 101.62 149.914 101.092 149.914C100.564 149.914 100.132 150.061 99.7944 150.354C99.4571 150.633 99.2371 151.051 99.1344 151.608H102.94ZM108.401 152.818C108.401 151.542 108.628 150.427 109.083 149.474C109.552 148.521 110.183 147.787 110.975 147.274C111.782 146.761 112.676 146.504 113.659 146.504C114.51 146.504 115.243 146.673 115.859 147.01C116.475 147.347 116.952 147.802 117.289 148.374V146.658H121.601V159H117.289V157.284C116.952 157.856 116.468 158.311 115.837 158.648C115.221 158.985 114.495 159.154 113.659 159.154C112.676 159.154 111.782 158.897 110.975 158.384C110.183 157.871 109.552 157.137 109.083 156.184C108.628 155.216 108.401 154.094 108.401 152.818ZM117.289 152.818C117.289 152.026 117.069 151.403 116.629 150.948C116.204 150.493 115.676 150.266 115.045 150.266C114.4 150.266 113.864 150.493 113.439 150.948C113.014 151.388 112.801 152.011 112.801 152.818C112.801 153.61 113.014 154.241 113.439 154.71C113.864 155.165 114.4 155.392 115.045 155.392C115.676 155.392 116.204 155.165 116.629 154.71C117.069 154.255 117.289 153.625 117.289 152.818ZM128.37 142.72V159H124.058V142.72H128.37ZM138.108 155.326V159H136.238C133.084 159 131.508 157.438 131.508 154.314V150.244H129.99V146.658H131.508V143.666H135.842V146.658H138.086V150.244H135.842V154.38C135.842 154.717 135.915 154.959 136.062 155.106C136.223 155.253 136.487 155.326 136.854 155.326H138.108ZM148.204 146.548C149.612 146.548 150.726 147.025 151.548 147.978C152.384 148.917 152.802 150.193 152.802 151.806V159H148.49V152.378C148.49 151.674 148.306 151.124 147.94 150.728C147.573 150.317 147.082 150.112 146.466 150.112C145.82 150.112 145.314 150.317 144.948 150.728C144.581 151.124 144.398 151.674 144.398 152.378V159H140.086V142.72H144.398V148.418C144.779 147.861 145.292 147.413 145.938 147.076C146.598 146.724 147.353 146.548 148.204 146.548Z" fill="white"/>
<path fill-rule="evenodd" clip-rule="evenodd" d="M125.645 7.70774C120.132 3.45227 109.393 -0.199992 97.2593 0.00851045C85.0158 0.218903 71.0881 4.36064 59.3373 16.0648C50.6024 24.765 46.2357 35.1085 45.9394 46.0828L31.721 58.1286L31.7134 58.1351C29.6751 59.8902 27.6665 62.8491 28.0466 66.1938C28.3985 69.2895 30.6251 71.6441 34.2909 73.1421C34.2532 73.419 34.2177 73.6907 34.1834 73.9548L34.1447 74.254C34.0364 75.091 33.9407 75.8314 33.827 76.5017C33.6984 77.261 33.5687 77.7881 33.4364 78.1356C33.4028 78.224 33.3748 78.285 33.3549 78.3245C31.7977 79.4714 31.1346 81.4907 31.1346 83.1945C31.1346 84.1915 31.3565 85.2649 31.8732 86.2498C31.655 86.6174 31.4718 87.0433 31.354 87.535C30.8572 89.6078 31.6806 92.0221 33.4643 94.9057L33.4642 94.924L33.4637 94.9466C33.4569 95.1889 33.3982 95.5786 33.2458 96.1782C33.0964 96.7658 32.8891 97.4351 32.6373 98.2298L32.5432 98.5264C32.3213 99.225 32.0754 99.9992 31.8434 100.803C30.8021 104.412 29.7873 109.399 32.2268 114.166C34.684 118.969 40.2179 122.763 50.2947 125.149C60.414 127.544 75.601 128.64 98.1711 127.617L101.487 127.467L100.437 124.274C100.377 124.091 100.305 123.856 100.225 123.597L100.225 123.596C100.064 123.075 99.8739 122.456 99.6925 121.968C99.3794 121.125 98.9306 120.158 98.1652 119.282C96.5862 117.474 94.2349 116.665 90.971 116.607C91.2689 115.375 92.2114 113.487 93.6033 111.273C95.0055 109.043 96.6762 106.77 98.0459 105.003L98.1318 104.893C98.697 106.295 99.3688 108.028 100.095 109.939C101.407 113.389 102.873 117.35 104.179 120.882L104.18 120.884L104.181 120.888L104.182 120.889C104.793 122.542 105.37 124.101 105.88 125.468L106.492 127.112H108.224C110.098 127.112 113.105 127.042 115.64 126.943C116.907 126.894 118.08 126.837 118.948 126.775C119.374 126.745 119.767 126.711 120.072 126.672C120.211 126.654 120.41 126.625 120.608 126.577C120.688 126.558 120.905 126.504 121.15 126.388C121.264 126.334 121.529 126.201 121.803 125.948C122.063 125.706 122.623 125.073 122.623 124.061C122.623 123.392 122.518 122.616 122.091 121.806C121.695 121.053 121.117 120.456 120.495 119.939C119.446 119.066 117.798 118.045 115.373 116.637C114.382 111.589 113.057 104.46 112.05 98.1855C111.507 94.8006 111.062 91.698 110.81 89.3154C110.683 88.1196 110.61 87.1489 110.593 86.434C110.584 86.0753 110.59 85.8217 110.603 85.6581L110.603 85.6554C110.614 85.6373 110.626 85.6168 110.639 85.5938C110.649 85.5769 110.66 85.5586 110.673 85.539C110.768 85.3834 110.901 85.1871 111.08 84.9398C111.375 84.5318 111.731 84.0708 112.159 83.5169L112.165 83.5084C112.266 83.3774 112.372 83.2413 112.481 83.0995C113.597 81.6512 115.014 79.7738 116.279 77.5798C118.811 73.19 120.896 67.2393 118.702 60.4459L118.692 60.4154L118.682 60.3852C117.846 58.0007 116.715 54.2033 116.051 50.6193C115.719 48.8238 115.518 47.1599 115.509 45.7921C115.504 45.0966 115.55 44.5659 115.616 44.1738C117.41 43.6473 119.584 42.7176 121.482 41.2843C123.821 39.5183 125.975 36.7808 126.059 32.9698C126.196 32.6434 126.354 32.2344 126.503 31.7831L127 30.2833L117.218 20.439C116.7 19.9171 115.682 19.2049 114.747 18.6406C114.34 18.3949 113.853 18.1177 113.333 17.8643V11.1857C113.333 10.6062 113.126 9.83457 112.461 9.25163C111.884 8.74596 111.264 8.65418 110.98 8.63464C110.465 8.59922 110.062 8.73723 109.975 8.76701L109.967 8.76956C109.705 8.85837 109.482 8.97891 109.379 9.03559C109.12 9.17864 108.817 9.37288 108.515 9.578C107.892 10.0008 107.082 10.601 106.252 11.2813C106.017 11.4733 105.778 11.6746 105.537 11.8829C105.499 11.7249 105.461 11.5747 105.425 11.4344C105.363 11.1942 105.3 10.9639 105.241 10.7668C105.201 10.6326 105.108 10.3219 104.969 10.0417C104.666 9.43285 104.13 8.95452 103.458 8.74142C102.881 8.5584 102.391 8.62901 102.143 8.68366C101.671 8.78764 101.33 9.00525 101.226 9.07228C100.944 9.25303 100.688 9.47862 100.516 9.63711C100.131 9.991 99.6521 10.488 99.1428 11.04C98.107 12.1627 96.769 13.7051 95.4404 15.2803C94.1082 16.8599 92.7643 18.4974 91.7124 19.8196C91.1875 20.4793 90.7264 21.0716 90.3727 21.5443C90.0876 21.9253 89.7025 22.447 89.5045 22.8456C89.2698 23.318 89.1275 23.9352 89.0423 24.319C88.9325 24.8136 88.8162 25.4291 88.696 26.1228C88.4546 27.5149 88.1793 29.3266 87.8894 31.3323C87.5673 33.5613 87.2183 36.0928 86.8734 38.5948L86.8733 38.596C86.6018 40.5657 86.3328 42.517 86.0814 44.2881C86.0387 44.5888 85.7448 45.3121 84.7165 46.6129C83.7454 47.8414 82.3677 49.2857 80.6302 51.0162C79.8765 51.7668 79.0619 52.5644 78.1996 53.4087C75.153 56.3916 71.5118 59.9568 67.8644 64.0881C58.4637 74.7363 48.6708 89.5132 47.3161 109.661C47.222 111.061 48.2652 112.274 49.6463 112.37C51.0275 112.466 52.2234 111.407 52.3176 110.007C53.5652 91.4516 62.5668 77.7107 71.5991 67.4799C75.1115 63.5014 78.5758 60.1089 81.6086 57.1389L81.6116 57.1359L81.6137 57.1339C82.4963 56.2695 83.3425 55.4409 84.1426 54.644C85.8883 52.9053 87.454 51.2782 88.6277 49.7934C89.7444 48.3808 90.7968 46.7489 91.0433 45.0126C91.3028 43.1845 91.5729 41.2245 91.8437 39.2589L91.8439 39.2576L91.845 39.2496L91.8457 39.2448C92.1856 36.7783 92.5267 34.3035 92.8495 32.0697C93.1379 30.0742 93.4048 28.3212 93.6333 27.0034C93.7479 26.3421 93.8485 25.8164 93.933 25.4357C93.9683 25.2768 93.9952 25.1702 94.0124 25.1046C94.0682 25.0252 94.1774 24.8701 94.3657 24.6184C94.6772 24.2022 95.104 23.6532 95.6137 23.0125C96.631 21.7339 97.9436 20.1341 99.2498 18.5855C99.9789 17.721 100.7 16.8802 101.361 16.1248C101.499 16.7593 101.626 17.3557 101.724 17.8243L103.499 26.3064L106.521 18.1946C106.526 18.1839 106.576 18.0733 106.732 17.8568C106.891 17.6374 107.112 17.3743 107.393 17.0753C107.671 16.7804 107.986 16.475 108.32 16.1697V21.7119L110.339 22.1182C110.604 22.1716 111.295 22.4734 112.183 23.0094C112.579 23.2488 112.948 23.494 113.24 23.7039C113.516 23.9027 113.652 24.0183 113.682 24.0435L113.687 24.0482L121.166 31.5749L121.019 31.8709L121.044 32.527C121.117 34.4335 120.151 35.9507 118.488 37.2059C116.791 38.4873 114.647 39.2527 113.23 39.5378L112.145 39.7561L111.573 40.716C110.68 42.2133 110.484 44.135 110.496 45.8275C110.508 47.6152 110.763 49.6069 111.124 51.558C111.845 55.4511 113.05 59.4933 113.948 62.0575C115.498 66.8924 114.115 71.2621 111.952 75.0128C110.868 76.8927 109.629 78.5436 108.531 79.969L108.415 80.1195L108.236 80.3508L108.234 80.353L108.234 80.3538C107.803 80.9118 107.383 81.4547 107.037 81.9343C106.639 82.4845 106.173 83.1693 105.899 83.8574C105.696 84.3695 105.634 84.9 105.606 85.2529C105.574 85.6569 105.57 86.1022 105.581 86.559C105.603 87.4753 105.692 88.6029 105.825 89.8579C106.092 92.3768 106.554 95.5852 107.102 99.0023C108.2 105.846 109.667 113.663 110.683 118.775C110.826 119.497 111.271 120.121 111.903 120.484C112.852 121.03 113.654 121.498 114.333 121.903C113.344 121.937 112.324 121.965 111.362 121.986C110.517 122.004 109.754 121.477 109.457 120.673C109.275 120.184 109.09 119.682 108.9 119.17L108.887 119.135C107.576 115.59 106.093 111.583 104.773 108.11C103.806 105.568 102.913 103.277 102.228 101.642C101.89 100.835 101.579 100.133 101.323 99.6286C101.207 99.3993 101.043 99.0939 100.85 98.827C100.78 98.7305 100.548 98.4114 100.166 98.1435C99.9714 98.0074 99.5341 97.738 98.9087 97.687C98.1546 97.6256 97.4322 97.9076 96.9169 98.4262C96.6437 98.7011 95.483 100.083 94.1053 101.86C92.6829 103.695 90.9019 106.114 89.3766 108.539C87.9081 110.875 86.4698 113.532 86.0206 115.763C85.8012 116.853 85.6986 118.407 86.5771 119.757C87.5524 121.256 89.1695 121.688 90.5863 121.688C93.3672 121.688 94.1285 122.328 94.4126 122.653C94.4208 122.663 94.429 122.672 94.4372 122.682C74.0098 123.431 60.3944 122.318 51.4341 120.197C41.9274 117.947 38.1386 114.682 36.6764 111.824C35.1966 108.932 35.6659 105.658 36.6547 102.231C36.8663 101.498 37.0901 100.793 37.3133 100.09L37.4099 99.7856C37.658 99.0027 37.9089 98.1995 38.1 97.4479C38.288 96.7085 38.4522 95.8926 38.4747 95.0913C38.4971 94.2938 38.3865 93.2813 37.7994 92.3457C36.9675 91.02 36.5517 90.0918 36.3609 89.4723C36.2734 89.1882 36.2411 88.9954 36.2302 88.8767C36.3056 88.8312 36.4201 88.7642 36.5888 88.6716L40.4544 86.5496L36.6853 84.2559C36.652 84.2357 36.5899 84.1916 36.5899 84.1916C36.5899 84.1916 35.9217 83.838 35.9217 83.2326C35.9217 82.8557 36.1503 82.5538 36.4244 82.351C37.3376 81.6753 37.8275 80.7171 38.113 79.9669C38.4255 79.1461 38.6213 78.2264 38.7676 77.3632C38.8994 76.5857 39.0089 75.7383 39.1146 74.9198L39.1536 74.6183C39.2749 73.6833 39.3983 72.7692 39.5594 71.8832L39.9747 69.5997L37.77 68.9739C33.6755 67.8117 33.0989 66.2465 33.0267 65.6115C32.9194 64.667 33.5398 63.2351 34.9507 62.0173L50.9362 48.4744V47.2855C50.9362 37.2888 54.7137 27.7963 62.8498 19.6925C73.5366 9.04808 86.1621 5.2844 97.3442 5.09224C108.636 4.8982 118.195 8.34626 122.609 11.7537C123.711 12.604 125.283 12.3876 126.122 11.2704C126.96 10.1531 126.747 8.55805 125.645 7.70774Z" fill="white"/>
</svg>
