<svg width="1440" height="218" viewBox="0 0 1440 218" fill="none" xmlns="http://www.w3.org/2000/svg">
<g filter="url(#filter0_d_1_45)">
<path d="M0 122L48 95.3C96 69 192 15 288 15.3C384 15 480 69 576 100.7C672 133 768 143 864 143.3C960 143 1056 133 1152 111.3C1248 90 1344 58 1392 42L1440 26V218H1392C1344 218 1248 218 1152 218C1056 218 960 218 864 218C768 218 672 218 576 218C480 218 384 218 288 218C192 218 96 218 48 218H0V122Z" fill="#FBF9FF"/>
</g>
<defs>
<filter id="filter0_d_1_45" x="-15" y="0.298767" width="1470" height="232.701" filterUnits="userSpaceOnUse" color-interpolation-filters="sRGB">
<feFlood flood-opacity="0" result="BackgroundImageFix"/>
<feColorMatrix in="SourceAlpha" type="matrix" values="0 0 0 0 0 0 0 0 0 0 0 0 0 0 0 0 0 0 127 0" result="hardAlpha"/>
<feOffset/>
<feGaussianBlur stdDeviation="7.5"/>
<feComposite in2="hardAlpha" operator="out"/>
<feColorMatrix type="matrix" values="0 0 0 0 0 0 0 0 0 0 0 0 0 0 0 0 0 0 0.25 0"/>
<feBlend mode="normal" in2="BackgroundImageFix" result="effect1_dropShadow_1_45"/>
<feBlend mode="normal" in="SourceGraphic" in2="effect1_dropShadow_1_45" result="shape"/>
</filter>
</defs>
</svg>
