<svg width="323" height="126" viewBox="0 0 323 126" fill="none" xmlns="http://www.w3.org/2000/svg">
<path d="M163.16 10.225V49H152.38V33.435H139.235V49H128.455V10.225H139.235V24.8H152.38V10.225H163.16ZM198.81 33.215C198.81 34.0583 198.755 34.9017 198.645 35.745H178.24C178.35 37.4317 178.808 38.6967 179.615 39.54C180.458 40.3467 181.521 40.75 182.805 40.75C184.601 40.75 185.885 39.9433 186.655 38.33H198.15C197.673 40.4567 196.738 42.3633 195.345 44.05C193.988 45.7 192.265 47.0017 190.175 47.955C188.085 48.9083 185.775 49.385 183.245 49.385C180.201 49.385 177.488 48.7433 175.105 47.46C172.758 46.1767 170.906 44.3433 169.55 41.96C168.23 39.5767 167.57 36.7717 167.57 33.545C167.57 30.3183 168.23 27.5317 169.55 25.185C170.87 22.8017 172.703 20.9683 175.05 19.685C177.433 18.4017 180.165 17.76 183.245 17.76C186.288 17.76 188.983 18.3833 191.33 19.63C193.676 20.8767 195.51 22.6733 196.83 25.02C198.15 27.33 198.81 30.0617 198.81 33.215ZM187.81 30.52C187.81 29.2 187.37 28.1733 186.49 27.44C185.61 26.67 184.51 26.285 183.19 26.285C181.87 26.285 180.788 26.6517 179.945 27.385C179.101 28.0817 178.551 29.1267 178.295 30.52H187.81ZM214.001 8.3V49H203.221V8.3H214.001ZM230.92 22.435C231.763 21.005 232.955 19.8683 234.495 19.025C236.035 18.1817 237.85 17.76 239.94 17.76C242.397 17.76 244.615 18.4017 246.595 19.685C248.612 20.9683 250.188 22.8017 251.325 25.185C252.498 27.5683 253.085 30.355 253.085 33.545C253.085 36.735 252.498 39.54 251.325 41.96C250.188 44.3433 248.612 46.1767 246.595 47.46C244.615 48.7433 242.397 49.385 239.94 49.385C237.85 49.385 236.035 48.9633 234.495 48.12C232.992 47.2767 231.8 46.14 230.92 44.71V63.74H220.14V18.145H230.92V22.435ZM242.14 33.545C242.14 31.5283 241.59 29.97 240.49 28.87C239.427 27.7333 238.107 27.165 236.53 27.165C234.953 27.165 233.615 27.7333 232.515 28.87C231.452 30.0067 230.92 31.565 230.92 33.545C230.92 35.5617 231.452 37.1383 232.515 38.275C233.615 39.4117 234.953 39.98 236.53 39.98C238.107 39.98 239.427 39.4117 240.49 38.275C241.59 37.1017 242.14 35.525 242.14 33.545ZM297.585 49L294.45 46.03C290.967 48.4133 286.805 49.605 281.965 49.605C278.922 49.605 276.264 49.11 273.99 48.12C271.754 47.13 270.012 45.7367 268.765 43.94C267.555 42.1433 266.95 40.0717 266.95 37.725C266.95 35.3783 267.555 33.2517 268.765 31.345C270.012 29.4017 271.864 27.825 274.32 26.615C273.404 25.4417 272.744 24.3233 272.34 23.26C271.937 22.1967 271.735 21.06 271.735 19.85C271.735 17.9433 272.23 16.2017 273.22 14.625C274.21 13.0483 275.659 11.8017 277.565 10.885C279.509 9.93166 281.8 9.455 284.44 9.455C287.117 9.455 289.39 9.95 291.26 10.94C293.13 11.8933 294.524 13.1767 295.44 14.79C296.394 16.3667 296.852 18.09 296.815 19.96H286.86C286.86 19.1167 286.622 18.475 286.145 18.035C285.669 17.595 285.082 17.375 284.385 17.375C283.652 17.375 283.029 17.595 282.515 18.035C282.039 18.4383 281.8 19.0067 281.8 19.74C281.8 21.0233 282.717 22.5817 284.55 24.415L293.625 33.27C293.955 32.61 294.304 31.8217 294.67 30.905L295.77 28.925H306.44L304.845 32.005C303.525 35.1583 302.077 37.8167 300.5 39.98L309.74 49H297.585ZM282.68 40.97C284.624 40.97 286.347 40.5483 287.85 39.705L280.205 32.39C279.252 32.9767 278.537 33.655 278.06 34.425C277.584 35.195 277.345 35.9833 277.345 36.79C277.345 37.9633 277.822 38.9533 278.775 39.76C279.729 40.5667 281.03 40.97 282.68 40.97ZM163.16 78.225V117H152.38V101.435H139.235V117H128.455V78.225H139.235V92.8H152.38V78.225H163.16ZM198.81 101.215C198.81 102.058 198.755 102.902 198.645 103.745H178.24C178.35 105.432 178.808 106.697 179.615 107.54C180.458 108.347 181.521 108.75 182.805 108.75C184.601 108.75 185.885 107.943 186.655 106.33H198.15C197.673 108.457 196.738 110.363 195.345 112.05C193.988 113.7 192.265 115.002 190.175 115.955C188.085 116.908 185.775 117.385 183.245 117.385C180.201 117.385 177.488 116.743 175.105 115.46C172.758 114.177 170.906 112.343 169.55 109.96C168.23 107.577 167.57 104.772 167.57 101.545C167.57 98.3183 168.23 95.5317 169.55 93.185C170.87 90.8017 172.703 88.9683 175.05 87.685C177.433 86.4017 180.165 85.76 183.245 85.76C186.288 85.76 188.983 86.3833 191.33 87.63C193.676 88.8767 195.51 90.6733 196.83 93.02C198.15 95.33 198.81 98.0617 198.81 101.215ZM187.81 98.52C187.81 97.2 187.37 96.1733 186.49 95.44C185.61 94.67 184.51 94.285 183.19 94.285C181.87 94.285 180.788 94.6517 179.945 95.385C179.101 96.0817 178.551 97.1267 178.295 98.52H187.81ZM201.461 101.545C201.461 98.355 202.029 95.5683 203.166 93.185C204.339 90.8017 205.916 88.9683 207.896 87.685C209.913 86.4017 212.149 85.76 214.606 85.76C216.733 85.76 218.566 86.1817 220.106 87.025C221.646 87.8683 222.838 89.005 223.681 90.435V86.145H234.461V117H223.681V112.71C222.838 114.14 221.628 115.277 220.051 116.12C218.511 116.963 216.696 117.385 214.606 117.385C212.149 117.385 209.913 116.743 207.896 115.46C205.916 114.177 204.339 112.343 203.166 109.96C202.029 107.54 201.461 104.735 201.461 101.545ZM223.681 101.545C223.681 99.565 223.131 98.0067 222.031 96.87C220.968 95.7333 219.648 95.165 218.071 95.165C216.458 95.165 215.119 95.7333 214.056 96.87C212.993 97.97 212.461 99.5283 212.461 101.545C212.461 103.525 212.993 105.102 214.056 106.275C215.119 107.412 216.458 107.98 218.071 107.98C219.648 107.98 220.968 107.412 222.031 106.275C223.131 105.138 223.681 103.562 223.681 101.545ZM251.384 76.3V117H240.604V76.3H251.384ZM275.728 107.815V117H271.053C263.17 117 259.228 113.095 259.228 105.285V95.11H255.433V86.145H259.228V78.665H270.063V86.145H275.673V95.11H270.063V105.45C270.063 106.293 270.246 106.898 270.613 107.265C271.016 107.632 271.676 107.815 272.593 107.815H275.728ZM300.967 85.87C304.487 85.87 307.274 87.0617 309.327 89.445C311.417 91.7917 312.462 94.9817 312.462 99.015V117H301.682V100.445C301.682 98.685 301.224 97.31 300.307 96.32C299.391 95.2933 298.162 94.78 296.622 94.78C295.009 94.78 293.744 95.2933 292.827 96.32C291.911 97.31 291.452 98.685 291.452 100.445V117H280.672V76.3H291.452V90.545C292.406 89.1517 293.689 88.0333 295.302 87.19C296.952 86.31 298.841 85.87 300.967 85.87Z" fill="url(#paint0_linear_105_6)"/>
<path fill-rule="evenodd" clip-rule="evenodd" d="M97.3905 7.57969C91.8919 3.39492 81.1805 -0.196669 69.0786 0.00836907C56.8671 0.215267 42.9757 4.2882 31.2555 15.7979C22.5435 24.3536 18.1882 34.5253 17.8926 45.3173L3.71132 57.163L3.70372 57.1694C1.67073 58.8953 -0.332632 61.8051 0.0465133 65.0942C0.39744 68.1384 2.6183 70.4539 6.27444 71.927C6.23693 72.1994 6.20145 72.4665 6.16726 72.7263L6.12864 73.0204C6.02067 73.8436 5.92517 74.5717 5.81184 75.2309C5.68349 75.9775 5.55418 76.4958 5.42224 76.8376C5.38866 76.9245 5.36079 76.9846 5.34091 77.0234C3.78779 78.1512 3.12641 80.1369 3.12641 81.8125C3.12641 82.7929 3.34771 83.8485 3.86312 84.8171C3.64546 85.1785 3.46279 85.5974 3.34526 86.0808C2.84974 88.1193 3.67098 90.4934 5.45007 93.3292L5.44991 93.3471L5.44942 93.3694C5.44264 93.6076 5.38416 93.9908 5.23209 94.5805C5.08308 95.1583 4.87637 95.8166 4.6252 96.598L4.53132 96.8897C4.31003 97.5766 4.06478 98.338 3.83338 99.1287C2.79476 102.678 1.78264 107.581 4.21579 112.27C6.66656 116.992 12.186 120.724 22.2366 123.07C32.3295 125.425 47.4768 126.503 69.988 125.497L73.295 125.35L72.2482 122.209C72.1882 122.029 72.1161 121.798 72.0366 121.544L72.0362 121.543C71.8762 121.03 71.6864 120.422 71.5055 119.942C71.1932 119.113 70.7455 118.162 69.9821 117.3C68.4073 115.523 66.0621 114.727 62.8067 114.67C63.1038 113.458 64.0439 111.602 65.4321 109.425C66.8307 107.232 68.4971 104.996 69.8632 103.259L69.9489 103.15C70.5126 104.529 71.1827 106.234 71.9074 108.113C73.2156 111.505 74.6774 115.401 75.9805 118.874L75.9812 118.876L75.9826 118.879L75.9832 118.881C76.5931 120.506 77.1681 122.039 77.6764 123.384L78.2872 125H80.0149C81.8835 125 84.8827 124.932 87.4113 124.835C88.675 124.786 89.8455 124.73 90.7108 124.669C91.1359 124.64 91.5279 124.606 91.8319 124.568C91.9701 124.55 92.1694 124.522 92.3669 124.475C92.4462 124.456 92.6625 124.402 92.9071 124.289C93.0206 124.236 93.2853 124.105 93.5581 123.855C93.8172 123.618 94.3764 122.996 94.3764 122C94.3764 121.342 94.2713 120.579 93.846 119.783C93.4506 119.042 92.8742 118.455 92.2539 117.946C91.2079 117.088 89.5633 116.084 87.145 114.699C86.1563 109.735 84.835 102.725 83.8307 96.5545C83.2889 93.2258 82.8449 90.1747 82.5935 87.8317C82.4673 86.6558 82.3944 85.7012 82.3771 84.9982C82.3684 84.6454 82.3749 84.396 82.3878 84.2352L82.388 84.2325C82.3982 84.2147 82.41 84.1946 82.4238 84.1719C82.4338 84.1553 82.4448 84.1373 82.4569 84.118C82.5525 83.965 82.6852 83.7719 82.8634 83.5288C83.1574 83.1276 83.5126 82.6742 83.9392 82.1295L83.9457 82.1212C84.0466 81.9924 84.1515 81.8585 84.2605 81.719C85.3733 80.2948 86.787 78.4486 88.0489 76.291C90.5737 71.9742 92.6538 66.1223 90.4657 59.4418L90.4559 59.4118L90.4453 59.3821C89.6113 57.0372 88.4837 53.3029 87.8216 49.7784C87.4899 48.0128 87.2899 46.3765 87.2805 45.0314C87.2758 44.3474 87.3219 43.8256 87.3876 43.44C89.1763 42.9222 91.3449 42.008 93.2382 40.5984C95.5708 38.8618 97.7196 36.1698 97.8031 32.4221C97.9396 32.1011 98.0972 31.6989 98.2463 31.2551L98.7418 29.7802L88.9856 20.0995C88.4684 19.5862 87.453 18.8858 86.5209 18.3309C86.1152 18.0893 85.6287 17.8167 85.1105 17.5675V10.9999C85.1105 10.43 84.9042 9.6712 84.2408 9.09795C83.6653 8.60067 83.0464 8.51042 82.7631 8.4912C82.2499 8.45637 81.8476 8.59209 81.7608 8.62137L81.7534 8.62388C81.4919 8.71121 81.2697 8.82975 81.1672 8.88549C80.9083 9.02616 80.606 9.21718 80.3048 9.41889C79.6839 9.83465 78.8759 10.4249 78.0476 11.0939C77.8139 11.2827 77.5749 11.4806 77.3352 11.6855C77.2964 11.5301 77.2588 11.3824 77.2227 11.2444C77.1609 11.0083 77.0987 10.7818 77.0398 10.5879C76.9997 10.4559 76.9069 10.1505 76.7681 9.87491C76.4664 9.27615 75.9312 8.80577 75.2612 8.59621C74.6858 8.41623 74.1969 8.48566 73.9495 8.53941C73.4789 8.64166 73.1391 8.85565 73.0349 8.92157C72.7539 9.09931 72.4989 9.32116 72.3269 9.47702C71.9428 9.82503 71.4652 10.3138 70.9572 10.8566C69.9241 11.9606 68.5896 13.4774 67.2645 15.0265C65.9357 16.5798 64.5954 18.1901 63.5462 19.4904C63.0227 20.1391 62.5628 20.7216 62.21 21.1864C61.9256 21.561 61.5416 22.0741 61.3441 22.4661C61.11 22.9306 60.968 23.5376 60.8831 23.915C60.7736 24.4014 60.6576 25.0067 60.5376 25.6888C60.2969 27.0578 60.0223 28.8394 59.7332 30.8118C59.4119 33.0038 59.0638 35.4932 58.7199 37.9536L58.7197 37.9549C58.4489 39.8918 58.1806 41.8107 57.9299 43.5524C57.8873 43.8481 57.5942 44.5594 56.5686 45.8386C55.6 47.0467 54.2259 48.4669 52.4929 50.1687C51.7412 50.9069 50.9287 51.6912 50.0686 52.5215C47.03 55.4548 43.3983 58.9608 39.7604 63.0235C30.3842 73.4948 20.6169 88.0262 19.2658 107.839C19.1718 109.217 20.2124 110.409 21.5899 110.503C22.9674 110.597 24.1602 109.557 24.2542 108.179C25.4985 89.9324 34.4766 76.4198 43.4854 66.3589C46.9886 62.4465 50.4438 59.1103 53.4688 56.1897L53.4718 56.1867L53.4738 56.1848C54.3542 55.3347 55.1981 54.5199 55.9961 53.7363C57.7373 52.0264 59.2989 50.4264 60.4696 48.9662C61.5833 47.5771 62.633 45.9723 62.8788 44.2649C63.1377 42.4671 63.407 40.5397 63.6772 38.6067L63.6774 38.6055L63.6785 38.5976L63.6791 38.5929C64.0182 36.1674 64.3583 33.7337 64.6803 31.537C64.968 29.5746 65.2342 27.8507 65.4621 26.5548C65.5764 25.9045 65.6767 25.3875 65.761 25.0131C65.7962 24.8569 65.823 24.752 65.8402 24.6876C65.8958 24.6095 66.0047 24.4569 66.1926 24.2094C66.5033 23.8001 66.9289 23.2603 67.4373 22.6303C68.4519 21.3729 69.7612 19.7997 71.0639 18.2767C71.7912 17.4266 72.5099 16.5997 73.1697 15.857C73.3075 16.4809 73.4341 17.0673 73.5319 17.5282L75.3016 25.8694L78.3164 17.8924C78.3212 17.8818 78.371 17.7731 78.5271 17.5602C78.6853 17.3444 78.9051 17.0857 79.1861 16.7917C79.4633 16.5017 79.7769 16.2013 80.1105 15.9011V21.3512L82.1238 21.7508C82.3882 21.8033 83.0778 22.1001 83.9631 22.6272C84.3585 22.8625 84.7263 23.1037 85.0176 23.3101C85.2934 23.5056 85.4286 23.6193 85.458 23.6441L85.4638 23.6487L92.9232 31.0504L92.7765 31.3414L92.8015 31.9866C92.8742 33.8615 91.9103 35.3535 90.2523 36.5879C88.5598 37.848 86.4206 38.6006 85.0077 38.881L83.9258 39.0957L83.3551 40.0396C82.4647 41.512 82.2691 43.4018 82.2807 45.0662C82.2929 46.8242 82.5471 48.7829 82.9076 50.7016C83.6268 54.53 84.8282 58.505 85.7234 61.0266C87.2696 65.7812 85.8902 70.0783 83.7329 73.7667C82.6517 75.6153 81.4158 77.2388 80.3206 78.6405L80.2048 78.7886L80.0266 79.016L80.0249 79.0182L80.0243 79.019C79.5944 79.5677 79.1761 80.1016 78.8304 80.5732C78.4339 81.1143 77.969 81.7877 77.6962 82.4644C77.4933 82.968 77.4314 83.4896 77.4037 83.8366C77.3719 84.234 77.3676 84.6718 77.3786 85.1211C77.4007 86.0222 77.4896 87.1311 77.622 88.3652C77.8879 90.8423 78.3487 93.9973 78.8956 97.3577C79.991 104.088 81.4537 111.775 82.4669 116.802C82.61 117.512 83.0542 118.125 83.6845 118.483C84.6308 119.019 85.4308 119.479 86.1077 119.878C85.1214 119.911 84.1044 119.939 83.145 119.96C82.3014 119.978 81.5407 119.459 81.2441 118.669C81.0634 118.187 80.8781 117.694 80.6892 117.19L80.6762 117.156C79.3684 113.67 77.8896 109.729 76.5725 106.314C75.6085 103.814 74.718 101.562 74.0343 99.9538C73.697 99.1602 73.3873 98.4696 73.1318 97.9735C73.0156 97.7481 72.8529 97.4477 72.6598 97.1853C72.59 97.0904 72.359 96.7766 71.9775 96.5131C71.7837 96.3793 71.3475 96.1144 70.7237 96.0643C69.9716 96.0038 69.2511 96.2812 68.7371 96.7911C68.4647 97.0615 67.3069 98.4208 65.9328 100.168C64.5142 101.972 62.7378 104.351 61.2165 106.736C59.7518 109.033 58.3173 111.646 57.8693 113.84C57.6505 114.912 57.5481 116.44 58.4243 117.768C59.3971 119.241 61.0099 119.666 62.4231 119.666C65.1967 119.666 65.956 120.296 66.2393 120.616C66.2475 120.625 66.2557 120.635 66.2639 120.644C45.8898 121.38 32.3099 120.286 23.3729 118.2C13.8911 115.988 10.1121 112.777 8.65377 109.967C7.17779 107.123 7.64585 103.903 8.63212 100.533C8.84318 99.8118 9.06639 99.1187 9.28902 98.4274L9.38538 98.1279C9.63283 97.358 9.88307 96.5682 10.0737 95.8291C10.2612 95.102 10.425 94.2997 10.4474 93.5116C10.4697 92.7274 10.3594 91.7317 9.77383 90.8117C8.94406 89.508 8.52939 88.5952 8.33907 87.986C8.25181 87.7066 8.21964 87.517 8.20875 87.4003C8.28398 87.3556 8.39818 87.2896 8.56639 87.1986L12.4219 85.1118L8.66265 82.8562C8.62945 82.8363 8.56754 82.793 8.56754 82.793C8.56754 82.793 7.901 82.4453 7.901 81.85C7.901 81.4793 8.12907 81.1824 8.40241 80.983C9.31326 80.3185 9.80182 79.3762 10.0867 78.6385C10.3983 77.8313 10.5936 76.9269 10.7396 76.078C10.871 75.3135 10.9802 74.4802 11.0856 73.6752L11.1245 73.3787C11.2455 72.4593 11.3686 71.5604 11.5293 70.6891L11.9434 68.4435L9.74452 67.8281C5.66067 66.6852 5.0856 65.146 5.01362 64.5216C4.90655 63.5928 5.52531 62.1847 6.93257 60.9871L22.8764 47.6691V46.5C22.8764 36.6693 26.644 27.3345 34.7589 19.3653C45.4179 8.89778 58.0104 5.19661 69.1633 5.00765C80.426 4.81683 89.9595 8.20761 94.3624 11.5585C95.4611 12.3947 97.0296 12.1818 97.8658 11.0831C98.702 9.98442 98.4892 8.41588 97.3905 7.57969Z" fill="url(#paint1_linear_105_6)"/>
<defs>
<linearGradient id="paint0_linear_105_6" x1="223.875" y1="3" x2="223.875" y2="210.167" gradientUnits="userSpaceOnUse">
<stop stop-color="#78D7D7"/>
<stop offset="1" stop-color="#5A23F3"/>
</linearGradient>
<linearGradient id="paint1_linear_105_6" x1="-38.0751" y1="155.597" x2="138.727" y2="-28.0593" gradientUnits="userSpaceOnUse">
<stop stop-color="#78FFD7"/>
<stop offset="1" stop-color="#5A23F3"/>
</linearGradient>
</defs>
</svg>
