<svg width="492" height="492" viewBox="0 0 492 492" fill="none" xmlns="http://www.w3.org/2000/svg">
<path d="M492 246C492 301.258 473.781 352.26 443.022 393.328C398.154 453.233 326.604 492 246 492C165.712 492 94.4069 453.537 49.5068 394.031C18.428 352.843 0 301.574 0 246C0 110.138 110.138 0 246 0C381.862 0 492 110.138 492 246Z" fill="white"/>
<path d="M344 167.5C344 221.348 300.348 265 246.5 265C192.652 265 149 221.348 149 167.5C149 113.652 192.652 70 246.5 70C300.348 70 344 113.652 344 167.5Z" fill="white"/>
<path d="M344 167.5C344 221.348 300.348 265 246.5 265C192.652 265 149 221.348 149 167.5C149 113.652 192.652 70 246.5 70C300.348 70 344 113.652 344 167.5Z" fill="url(#paint0_linear_201_7)"/>
<path fill-rule="evenodd" clip-rule="evenodd" d="M443.022 393.328C398.154 453.233 326.604 492 246 492C165.712 492 94.4069 453.537 49.5068 394.031C91.2829 331.427 163.905 290 246.5 290C328.786 290 401.172 331.117 443.022 393.328Z" fill="white"/>
<path fill-rule="evenodd" clip-rule="evenodd" d="M443.022 393.328C398.154 453.233 326.604 492 246 492C165.712 492 94.4069 453.537 49.5068 394.031C91.2829 331.427 163.905 290 246.5 290C328.786 290 401.172 331.117 443.022 393.328Z" fill="url(#paint1_linear_201_7)"/>
<defs>
<linearGradient id="paint0_linear_201_7" x1="-23.5" y1="367" x2="404.74" y2="-58.8618" gradientUnits="userSpaceOnUse">
<stop stop-color="#78FFD7"/>
<stop offset="1" stop-color="#5A23F3"/>
</linearGradient>
<linearGradient id="paint1_linear_201_7" x1="-23.5" y1="367" x2="404.74" y2="-58.8618" gradientUnits="userSpaceOnUse">
<stop stop-color="#78FFD7"/>
<stop offset="1" stop-color="#5A23F3"/>
</linearGradient>
</defs>
</svg>
