<svg width="133" height="170" viewBox="0 0 133 170" fill="none" xmlns="http://www.w3.org/2000/svg">
<path fill-rule="evenodd" clip-rule="evenodd" d="M131.18 10.2368C123.774 4.58505 109.346 -0.265614 93.0453 0.0113029C76.597 0.290731 57.886 5.79147 42.0996 21.3361C30.3649 32.891 24.4985 46.6285 24.1004 61.2038L4.99895 77.202L4.98872 77.2107C2.25039 79.5416 -0.448038 83.4715 0.0626509 87.9136C0.535331 92.0251 3.52672 95.1523 8.45135 97.1418C8.40082 97.5097 8.35303 97.8704 8.30698 98.2213L8.25496 98.6185C8.10953 99.7302 7.98089 100.714 7.82825 101.604C7.65537 102.612 7.4812 103.312 7.30347 103.774C7.25825 103.891 7.2207 103.972 7.19393 104.025C5.10196 105.548 4.21111 108.23 4.21111 110.493C4.21111 111.817 4.5092 113.242 5.20343 114.551C4.91025 115.039 4.66419 115.604 4.5059 116.257C3.83846 119.01 4.94461 122.217 7.34096 126.047L7.34074 126.071L7.34009 126.101C7.33096 126.423 7.25218 126.94 7.04735 127.737C6.84664 128.517 6.56821 129.406 6.22991 130.461L6.10345 130.855C5.80539 131.783 5.47504 132.811 5.16336 133.879C3.7644 138.673 2.40112 145.295 5.67846 151.627C8.97951 158.005 16.4139 163.045 29.9515 166.213C43.5461 169.394 63.9488 170.85 94.2702 169.492L98.7245 169.292L97.3145 165.051C97.2337 164.808 97.1366 164.496 97.0295 164.152L97.0291 164.151C96.8135 163.458 96.5578 162.637 96.3142 161.988C95.8936 160.869 95.2905 159.585 94.2623 158.421C92.1411 156.02 88.9823 154.945 84.5974 154.868C84.9976 153.232 86.2638 150.725 88.1337 147.785C90.0175 144.823 92.262 141.804 94.102 139.457L94.2175 139.31C94.9768 141.173 95.8794 143.475 96.8555 146.013C98.6176 150.594 100.587 155.856 102.342 160.546L102.343 160.549L102.345 160.554L102.345 160.556C103.167 162.751 103.941 164.821 104.626 166.637L105.449 168.82H107.776C110.293 168.82 114.333 168.728 117.738 168.597C119.441 168.531 121.017 168.455 122.183 168.374C122.755 168.333 123.283 168.288 123.693 168.236C123.879 168.213 124.147 168.174 124.413 168.11C124.52 168.085 124.812 168.013 125.141 167.859C125.294 167.788 125.65 167.611 126.018 167.274C126.367 166.954 127.12 166.113 127.12 164.768C127.12 163.88 126.979 162.85 126.406 161.774C125.873 160.774 125.097 159.981 124.261 159.294C122.852 158.135 120.637 156.778 117.38 154.908C116.048 148.204 114.268 138.736 112.916 130.403C112.186 125.907 111.588 121.786 111.249 118.622C111.079 117.034 110.981 115.745 110.958 114.795C110.946 114.319 110.955 113.982 110.972 113.765L110.972 113.761C110.986 113.737 111.002 113.71 111.021 113.679C111.034 113.657 111.049 113.633 111.065 113.606C111.194 113.4 111.373 113.139 111.613 112.811C112.009 112.269 112.487 111.656 113.062 110.921L113.071 110.91C113.206 110.736 113.348 110.555 113.494 110.366C114.993 108.443 116.898 105.95 118.597 103.036C121.998 97.2055 124.8 89.3022 121.853 80.2797L121.839 80.2392L121.825 80.1991C120.702 77.0322 119.183 71.9887 118.291 67.2288C117.844 64.8441 117.575 62.6343 117.562 60.8176C117.556 59.8939 117.618 59.1891 117.706 58.6683C120.116 57.9691 123.037 56.7344 125.587 54.8306C128.729 52.4852 131.623 48.8496 131.736 43.7881C131.919 43.3545 132.132 42.8113 132.333 42.2119L133 40.22L119.859 27.1456C119.162 26.4524 117.795 25.5064 116.539 24.757C115.993 24.4307 115.337 24.0625 114.639 23.726V14.856C114.639 14.0863 114.362 13.0615 113.468 12.2873C112.693 11.6157 111.859 11.4938 111.478 11.4679C110.786 11.4208 110.244 11.6041 110.128 11.6437L110.118 11.6471C109.765 11.765 109.466 11.9251 109.328 12.0004C108.979 12.1904 108.572 12.4484 108.166 12.7208C107.33 13.2823 106.242 14.0795 105.126 14.983C104.811 15.238 104.489 15.5053 104.166 15.782C104.114 15.5721 104.064 15.3726 104.015 15.1863C103.932 14.8673 103.848 14.5614 103.769 14.2997C103.715 14.1214 103.59 13.7088 103.403 13.3367C102.996 12.528 102.275 11.8927 101.373 11.6097C100.598 11.3666 99.9394 11.4604 99.6062 11.533C98.9723 11.6711 98.5145 11.9601 98.3742 12.0491C97.9956 12.2892 97.6522 12.5888 97.4205 12.7993C96.9032 13.2693 96.2599 13.9294 95.5757 14.6626C94.1842 16.1536 92.3866 18.2021 90.6018 20.2942C88.812 22.392 87.0066 24.5669 85.5934 26.3229C84.8882 27.1991 84.2688 27.9858 83.7936 28.6135C83.4106 29.1195 82.8933 29.8125 82.6273 30.3418C82.312 30.9692 82.1208 31.789 82.0063 32.2987C81.8589 32.9555 81.7026 33.7731 81.541 34.6943C81.2168 36.5432 80.847 38.9493 80.4575 41.6132C80.0247 44.5737 79.5559 47.9357 79.0926 51.2587L79.0924 51.2604C78.7276 53.8763 78.3662 56.4679 78.0285 58.8201C77.9712 59.2195 77.5764 60.1802 76.1949 61.9078C74.8903 63.5394 73.0394 65.4575 70.7052 67.7559C69.6927 68.7528 68.5982 69.8122 67.4398 70.9335C63.347 74.8951 58.4552 79.6301 53.5552 85.1171C40.926 99.2592 27.7699 118.885 25.95 145.643C25.8234 147.504 27.225 149.115 29.0804 149.241C30.9359 149.368 32.5426 147.963 32.6691 146.103C34.3452 121.459 46.4382 103.21 58.5725 89.6217C63.2912 84.3378 67.9452 79.8321 72.0196 75.8875L72.0237 75.8836L72.0264 75.881C73.2123 74.7329 74.349 73.6324 75.4238 72.5741C77.7692 70.2648 79.8726 68.1038 81.4494 66.1318C82.9495 64.2558 84.3634 62.0884 84.6945 59.7824C85.0431 57.3544 85.406 54.7513 85.7699 52.1407L85.7701 52.1391L85.7716 52.1284L85.7725 52.1221C86.2291 48.8462 86.6873 45.5593 87.1211 42.5926C87.5085 39.9423 87.867 37.6141 88.174 35.8639C88.328 34.9856 88.4631 34.2874 88.5767 33.7817C88.624 33.5708 88.6602 33.4291 88.6834 33.3421C88.7583 33.2366 88.905 33.0306 89.158 32.6963C89.5765 32.1435 90.1498 31.4144 90.8345 30.5635C92.2012 28.8654 93.9647 26.7406 95.7194 24.6838C96.699 23.5357 97.6671 22.419 98.5557 21.4158C98.7414 22.2584 98.9119 23.0505 99.0436 23.6729L101.427 34.9382L105.488 24.1647C105.495 24.1505 105.562 24.0037 105.772 23.7161C105.985 23.4247 106.281 23.0752 106.66 22.6781C107.033 22.2865 107.455 21.8808 107.905 21.4754V28.8361L110.616 29.3758C110.973 29.4466 111.901 29.8475 113.094 30.5593C113.626 30.8772 114.122 31.2029 114.514 31.4817C114.886 31.7457 115.068 31.8992 115.108 31.9327L115.115 31.939L125.163 41.9355L124.965 42.3285L124.999 43.1999C125.097 45.732 123.798 47.7471 121.565 49.4141C119.285 51.116 116.404 52.1324 114.501 52.5111L113.044 52.8011L112.275 54.0759C111.076 56.0645 110.812 58.6167 110.828 60.8647C110.844 63.2389 111.187 65.8842 111.672 68.4755C112.641 73.6461 114.259 79.0146 115.465 82.4201C117.548 88.8414 115.69 94.645 112.784 99.6264C111.328 102.123 109.663 104.316 108.188 106.209L108.032 106.409L107.792 106.716L107.789 106.719L107.789 106.72C107.209 107.461 106.646 108.182 106.18 108.819C105.646 109.55 105.02 110.459 104.653 111.373C104.379 112.053 104.296 112.758 104.259 113.226C104.216 113.763 104.21 114.354 104.225 114.961C104.255 116.178 104.374 117.676 104.553 119.343C104.911 122.688 105.532 126.949 106.268 131.487C107.744 140.577 109.714 150.959 111.079 157.748C111.271 158.707 111.87 159.535 112.719 160.018C113.993 160.743 115.071 161.364 115.983 161.903C114.654 161.947 113.284 161.985 111.992 162.013C110.856 162.037 109.831 161.336 109.432 160.269C109.188 159.619 108.939 158.952 108.684 158.272L108.667 158.226C106.905 153.518 104.913 148.196 103.139 143.583C101.841 140.208 100.641 137.165 99.7204 134.994C99.266 133.922 98.8489 132.989 98.5047 132.319C98.3483 132.015 98.129 131.609 97.869 131.255C97.7749 131.126 97.4638 130.703 96.9499 130.347C96.6889 130.166 96.1014 129.808 95.2612 129.741C94.2481 129.659 93.2776 130.034 92.5853 130.722C92.2184 131.087 90.6589 132.923 88.8081 135.283C86.8972 137.72 84.5046 140.932 82.4554 144.154C80.4826 147.256 78.5504 150.785 77.9469 153.748C77.6522 155.195 77.5143 157.26 78.6946 159.053C80.0048 161.043 82.1772 161.617 84.0806 161.617C87.8165 161.617 88.8393 162.467 89.221 162.899C89.232 162.911 89.243 162.924 89.254 162.937C61.8111 163.931 43.5198 162.454 31.4821 159.637C18.7106 156.648 13.6205 152.312 11.6562 148.517C9.66812 144.676 10.2986 140.328 11.627 135.776C11.9113 134.802 12.212 133.866 12.5118 132.932L12.6416 132.528C12.9749 131.488 13.312 130.421 13.5687 129.423C13.8213 128.441 14.0419 127.357 14.0721 126.293C14.1022 125.234 13.9536 123.889 13.1648 122.647C12.0472 120.886 11.4886 119.653 11.2323 118.83C11.1148 118.453 11.0714 118.197 11.0568 118.039C11.1581 117.979 11.3119 117.89 11.5385 117.767L16.7317 114.949L11.6681 111.902C11.6234 111.875 11.54 111.817 11.54 111.817C11.54 111.817 10.6422 111.347 10.6422 110.543C10.6422 110.043 10.9494 109.642 11.3176 109.372C12.5445 108.475 13.2025 107.202 13.5862 106.206C14.0059 105.116 14.2691 103.894 14.4656 102.748C14.6427 101.715 14.7897 100.59 14.9317 99.5028L14.9841 99.1024C15.1471 97.8606 15.3128 96.6467 15.5293 95.4699L16.0872 92.4371L13.1254 91.606C7.62463 90.0624 6.85004 87.9837 6.75309 87.1403C6.60887 85.8859 7.44231 83.9842 9.33781 82.3667L30.8133 64.3801V62.801C30.8133 49.5241 35.8881 36.9169 46.8184 26.1541C61.1755 12.017 78.137 7.01834 93.1594 6.76314C108.33 6.50542 121.171 11.0849 127.101 15.6104C128.581 16.7397 130.694 16.4523 131.82 14.9684C132.946 13.4846 132.66 11.3662 131.18 10.2368Z" fill="url(#paint0_linear_105_14)"/>
<defs>
<linearGradient id="paint0_linear_105_14" x1="-51.2852" y1="210.143" x2="187.52" y2="-37.2566" gradientUnits="userSpaceOnUse">
<stop stop-color="#78FFD7"/>
<stop offset="1" stop-color="#5A23F3"/>
</linearGradient>
</defs>
</svg>
